<svg width="80" height="81" viewBox="0 0 80 81" fill="none" xmlns="http://www.w3.org/2000/svg">
<rect y="0.512821" width="80" height="80" rx="5.23" fill="#EAEAEA"/>
<g clip-path="url(#clip0_11_4)">
<path d="M40 74.0198C25.3327 74.0198 13.4 61.426 13.4 45.9462C13.4 40.0174 17.222 32.1605 24.76 22.5941C30.5459 15.2509 36.7767 9.117 39.1869 6.82081C39.6422 6.387 40.3578 6.387 40.8132 6.82067C43.2233 9.11618 49.4537 15.2484 55.2403 22.5917C62.7782 32.1575 66.6003 40.015 66.6003 45.9463C66.6 61.426 54.6673 74.0198 40 74.0198Z" fill="url(#paint0_linear_11_4)"/>
<path d="M54.1149 19.548C47.5111 11.5673 40.814 5.40358 40.7472 5.3422C40.3247 4.95446 39.6757 4.95446 39.2531 5.3422C39.1863 5.40345 32.4891 11.5671 25.8854 19.548C16.9161 30.3872 12.3683 39.269 12.3683 45.9462C12.3685 61.9949 24.7641 75.0514 40 75.0514C55.236 75.0514 67.6316 61.9949 67.6316 45.9462C67.6316 39.269 63.084 30.3872 54.1149 19.548ZM52.0221 20.5002C54.5275 23.4969 57.0468 26.7759 59.2153 30.104H42.9474C41.9316 30.104 41.1052 29.2777 41.1052 28.2619C41.1052 27.246 41.9316 26.4197 42.9474 26.4197H47.3685C47.9789 26.4197 48.4737 25.9251 48.4737 25.3145C48.4737 24.7039 47.9788 24.2092 47.3685 24.2092C46.3526 24.2092 45.5263 23.3829 45.5263 22.3671C45.5263 21.3513 46.3526 20.525 47.3685 20.525H51.7895C51.8694 20.5251 51.947 20.5163 52.0221 20.5002ZM40.0001 7.67434C41.6324 9.22911 45.7226 13.2251 50.156 18.3146H47.3685C45.1338 18.3146 43.3159 20.1327 43.3159 22.3672C43.3159 23.03 43.4759 23.6564 43.7591 24.2094H42.9474C40.7127 24.2094 38.8948 26.0275 38.8948 28.262C38.8948 30.4965 40.7127 32.3146 42.9474 32.3146H60.5967C62.4226 35.3701 63.8864 38.4232 64.7039 41.2943C62.8733 41.1971 61.9498 40.3292 60.7993 39.2465C59.4755 38.0005 57.9748 36.5883 55.0311 36.5883C52.0874 36.5883 50.5868 38.0005 49.2628 39.2465C48.0414 40.3962 47.0766 41.3041 45.0095 41.3041C42.9425 41.3041 41.9779 40.3962 40.7565 39.2465C39.4326 38.0005 37.9321 36.5883 34.9884 36.5883C32.0448 36.5883 30.5444 38.0005 29.2206 39.2465C27.9993 40.3962 27.0344 41.3041 24.9676 41.3041C22.901 41.3041 21.9363 40.3962 20.715 39.2468C19.7377 38.3271 18.6619 37.3191 16.9829 36.8533C22.647 24.6361 36.6132 10.9012 40.0001 7.67434ZM65.0526 48.6725C62.9856 48.6725 62.0208 47.7645 60.7994 46.6148C59.4755 45.3688 57.9748 43.9566 55.0311 43.9566C52.0874 43.9566 50.5868 45.3688 49.2628 46.6148C48.0414 47.7645 47.0766 48.6725 45.0095 48.6725C44.09 48.6725 43.3886 48.4925 42.7858 48.1918C42.357 47.9778 41.8419 48.0478 41.5031 48.3866C41.4978 48.3919 41.4923 48.3974 41.4871 48.4026C40.9652 48.9244 41.0947 49.8104 41.7521 50.1458C42.6164 50.5865 43.6616 50.8829 45.0098 50.8829C47.9535 50.8829 49.4541 49.4708 50.7781 48.2247C51.9995 47.0752 52.9641 46.1671 55.0313 46.1671C57.0985 46.1671 58.0632 47.0751 59.2846 48.2247C60.5992 49.4619 62.0884 50.862 64.9906 50.8821C62.7932 63.3626 52.4239 72.8409 40 72.8409C26.0326 72.8409 14.6615 60.8612 14.5809 46.1037C14.6957 46.1441 14.8187 46.1672 14.9474 46.1672C17.014 46.1672 17.9787 47.0752 19.2 48.2246C20.5239 49.4708 22.0244 50.8829 24.9678 50.8829C27.9113 50.8829 29.4118 49.4708 30.7357 48.2247C31.9571 47.0751 32.9217 46.1671 34.9886 46.1671C36.0458 46.1671 36.8146 46.4049 37.4769 46.7909C37.9018 47.0385 38.4416 46.9606 38.7892 46.6128C38.7946 46.6075 38.7998 46.6023 38.805 46.5971C39.3157 46.0863 39.1979 45.2343 38.5729 44.8716C37.6474 44.3344 36.511 43.9566 34.9886 43.9566C32.045 43.9566 30.5445 45.3688 29.2207 46.6148C27.9993 47.7645 27.0344 48.6725 24.9676 48.6725C22.901 48.6725 21.9363 47.7645 20.715 46.6151C19.3912 45.3689 17.8907 43.9568 14.9473 43.9568C14.8695 43.9568 14.7936 43.965 14.7203 43.9803C14.9433 42.3628 15.4254 40.6612 16.1039 38.9132C17.4242 39.1894 18.2326 39.9461 19.1998 40.8563C20.5236 42.1024 22.0241 43.5146 24.9675 43.5146C27.9111 43.5146 29.4116 42.1025 30.7354 40.8564C31.9568 39.7067 32.9214 38.7988 34.9883 38.7988C37.0554 38.7988 38.0199 39.7067 39.2414 40.8564C40.5652 42.1025 42.0658 43.5146 45.0094 43.5146C47.9531 43.5146 49.4537 42.1025 50.7777 40.8564C51.9993 39.7069 52.964 38.7988 55.031 38.7988C57.0982 38.7988 58.0629 39.7067 59.2843 40.8564C60.6083 42.1025 62.1088 43.5146 65.0525 43.5146C65.1043 43.5146 65.155 43.5097 65.2052 43.5029C65.3448 44.3396 65.4209 45.1563 65.4209 45.9462C65.4209 46.8752 65.3761 47.7934 65.2887 48.6984C65.2127 48.6819 65.1338 48.6725 65.0526 48.6725Z" fill="url(#paint1_linear_11_4)"/>
</g>
<defs>
<linearGradient id="paint0_linear_11_4" x1="40.0001" y1="6.49544" x2="40.0001" y2="74.0198" gradientUnits="userSpaceOnUse">
<stop stop-color="#E8ECF0"/>
<stop offset="1" stop-color="#2960B3"/>
</linearGradient>
<linearGradient id="paint1_linear_11_4" x1="39.9999" y1="5.0514" x2="39.9999" y2="75.0514" gradientUnits="userSpaceOnUse">
<stop stop-color="#E8ECF0"/>
<stop offset="1" stop-color="#2960B3"/>
</linearGradient>
<clipPath id="clip0_11_4">
<rect width="70" height="70" fill="white" transform="translate(5 5.0514)"/>
</clipPath>
</defs>
</svg>
