<svg width="80" height="81" viewBox="0 0 80 81" fill="none" xmlns="http://www.w3.org/2000/svg">
<rect y="0.512817" width="80" height="80" rx="5.23" fill="#EAEAEA"/>
<path d="M35.4246 11.7425L5.54209 63.5004C3.28681 67.4065 6.10605 72.2895 10.6166 72.2895H70.3813C74.8919 72.2895 77.7111 67.4065 75.4559 63.5004L45.5733 11.7425C43.3181 7.83634 37.6799 7.83634 35.4246 11.7425Z" fill="#0D2848"/>
<path d="M13.1537 64.9652L40.4988 17.6019L67.8439 64.9652H13.1537Z" fill="#EFEFEF"/>
<path d="M43.2331 49.7309H37.7645L37.1842 33.3246H43.8135L43.2331 49.7309Z" fill="#0D2848"/>
<path d="M43.2331 53.5881H37.7643C37.3597 53.5881 37.0318 53.9159 37.0318 54.3205V59.301C37.0318 59.7056 37.3597 60.0334 37.7643 60.0334H43.2331C43.6377 60.0334 43.9655 59.7056 43.9655 59.301V54.3205C43.9655 53.9162 43.6377 53.5881 43.2331 53.5881Z" fill="#0D2848"/>
</svg>
