<svg width="80" height="81" viewBox="0 0 80 81" fill="none" xmlns="http://www.w3.org/2000/svg">
<g clip-path="url(#clip0_153_3)">
<path d="M74.77 0.512817H5.23C2.34155 0.512817 0 2.85437 0 5.74282V75.2828C0 78.1713 2.34155 80.5128 5.23 80.5128H74.77C77.6584 80.5128 80 78.1713 80 75.2828V5.74282C80 2.85437 77.6584 0.512817 74.77 0.512817Z" fill="#D9D9D9"/>
<path d="M47.2889 50.6015L50.4042 48.7996C53.9519 46.7469 55.724 45.7206 55.9616 44.2586C55.9967 44.0305 56.0078 43.7994 55.9946 43.5689C55.8758 42.0971 54.1928 40.9618 50.8299 38.6913L35.2963 28.2068C29.1943 24.0883 27.7918 16.5772 32.0753 11M52.7011 19.2503C52.7011 20.5632 52.1796 21.8223 51.2512 22.7506C50.3229 23.679 49.0638 24.2005 47.7509 24.2005C46.4381 24.2005 45.179 23.679 44.2506 22.7506C43.3223 21.8223 42.8007 20.5632 42.8007 19.2503C42.8007 17.9374 43.3223 16.6783 44.2506 15.75C45.179 14.8217 46.4381 14.3001 47.7509 14.3001C49.0638 14.3001 50.3229 14.8217 51.2512 15.75C52.1796 16.6783 52.7011 17.9374 52.7011 19.2503Z" stroke="#0D2848" stroke-width="4.95019" stroke-linecap="round" stroke-linejoin="round"/>
<path d="M35.2963 28.2068C27.046 36.4572 23 59.2874 23 70.4022M35.2963 28.2068C29.1943 24.0883 27.7918 16.5772 32.0753 11M35.2963 28.2068L44.0284 34.1009M47.2889 50.6015L50.4042 48.7996C53.9519 46.7469 55.724 45.7206 55.9616 44.2587C55.9967 44.0305 56.0078 43.7994 55.9946 43.5689C55.8758 42.0971 54.1928 40.9618 50.8299 38.6913L44.0317 34.1009C41.7432 37.0626 39.7846 40.265 38.1905 43.6514C36.7384 46.7106 36.0157 48.2386 36.151 49.9877L26.3001 47.3014M49.401 70.4022C46.19 66.6566 42.8865 61.4919 39.6656 56.7331C37.4116 53.4 36.283 51.7301 36.151 49.9844" stroke="#0D2848" stroke-width="4.95019" stroke-linecap="round" stroke-linejoin="round"/>
</g>
<defs>
<clipPath id="clip0_153_3">
<rect width="80" height="81" fill="white"/>
</clipPath>
</defs>
</svg>
