<svg width="220" height="84" viewBox="0 0 220 84" fill="none" xmlns="http://www.w3.org/2000/svg">
<path d="M31.7 14.728C34.364 14.728 36.692 15.256 38.684 16.312C40.676 17.368 42.212 18.856 43.292 20.776C44.396 22.672 44.948 24.868 44.948 27.364C44.948 29.836 44.396 32.032 43.292 33.952C42.212 35.872 40.664 37.36 38.648 38.416C36.656 39.472 34.34 40 31.7 40H22.232V14.728H31.7ZM31.304 34.672C33.632 34.672 35.444 34.036 36.74 32.764C38.036 31.492 38.684 29.692 38.684 27.364C38.684 25.036 38.036 23.224 36.74 21.928C35.444 20.632 33.632 19.984 31.304 19.984H28.388V34.672H31.304ZM64.1203 35.536H54.6883L53.1763 40H46.7323L55.8763 14.728H63.0043L72.1483 40H65.6323L64.1203 35.536ZM62.5363 30.784L59.4043 21.532L56.3083 30.784H62.5363ZM97.5392 40H91.3832L81.0872 24.412V40H74.9312V14.728H81.0872L91.3832 30.388V14.728H97.5392V40ZM103.01 14.296H107.906V26.716C107.906 27.316 107.894 27.988 107.87 28.732C107.846 29.476 107.822 30.208 107.798 30.928C107.774 31.624 107.75 32.236 107.726 32.764C107.702 33.268 107.678 33.616 107.654 33.808H107.762L119.642 14.296H126.158V40H121.298V27.652C121.298 27.004 121.31 26.296 121.334 25.528C121.358 24.736 121.382 23.98 121.406 23.26C121.454 22.54 121.49 21.916 121.514 21.388C121.562 20.836 121.598 20.476 121.622 20.308H121.478L109.562 40H103.01V14.296ZM147.37 35.536H137.938L136.426 40H129.982L139.126 14.728H146.254L155.398 40H148.882L147.37 35.536ZM145.786 30.784L142.654 21.532L139.558 30.784H145.786Z" fill="#0D2848"/>
<path d="M25.28 76.14C23.9867 76.14 22.9333 75.8333 22.12 75.22C21.32 74.5933 20.92 73.76 20.92 72.72C20.92 72.52 20.9267 72.3733 20.94 72.28H22.74C22.7 72.9333 22.9 73.4933 23.34 73.96C23.78 74.4267 24.4533 74.66 25.36 74.66C26.2667 74.66 26.9867 74.4533 27.52 74.04C28.0533 73.6267 28.32 73.0467 28.32 72.3C28.32 71.8467 28.1867 71.4667 27.92 71.16C27.6667 70.84 27.3467 70.58 26.96 70.38C26.5867 70.1667 26.0733 69.9333 25.42 69.68C24.62 69.36 23.9733 69.06 23.48 68.78C23 68.5 22.5933 68.12 22.26 67.64C21.9267 67.16 21.7733 66.5533 21.8 65.82C21.8 65.0467 22.0067 64.36 22.42 63.76C22.8333 63.16 23.4 62.7 24.12 62.38C24.8533 62.0467 25.6867 61.88 26.62 61.88C27.5267 61.88 28.3067 62.0333 28.96 62.34C29.6267 62.6467 30.1267 63.0733 30.46 63.62C30.7933 64.1667 30.94 64.78 30.9 65.46H29C29.0267 65.1133 28.9467 64.78 28.76 64.46C28.5867 64.14 28.3067 63.88 27.92 63.68C27.5467 63.48 27.08 63.38 26.52 63.38C25.6533 63.38 24.9533 63.5867 24.42 64C23.9 64.4 23.64 64.9533 23.64 65.66C23.64 66.0733 23.76 66.4333 24 66.74C24.2533 67.0333 24.5667 67.2867 24.94 67.5C25.3133 67.7 25.8267 67.94 26.48 68.22C27.2667 68.5533 27.9067 68.8667 28.4 69.16C28.9067 69.44 29.3333 69.82 29.68 70.3C30.0267 70.78 30.2 71.38 30.2 72.1C30.2 72.8733 30 73.5667 29.6 74.18C29.2 74.78 28.6267 75.26 27.88 75.62C27.1333 75.9667 26.2667 76.14 25.28 76.14ZM32.4406 70.48C32.6406 69.36 33.0406 68.38 33.6406 67.54C34.254 66.6867 34.994 66.0267 35.8606 65.56C36.7406 65.0933 37.674 64.86 38.6606 64.86C39.6206 64.86 40.414 65.0667 41.0406 65.48C41.6673 65.8933 42.1006 66.4133 42.3406 67.04L42.7006 65.04H44.5406L42.6006 76H40.7606L41.1406 73.96C40.6606 74.6 40.0273 75.1333 39.2406 75.56C38.454 75.9733 37.5873 76.18 36.6406 76.18C35.7873 76.18 35.034 76 34.3806 75.64C33.7273 75.2667 33.2206 74.74 32.8606 74.06C32.5006 73.38 32.3206 72.5933 32.3206 71.7C32.3206 71.3 32.3606 70.8933 32.4406 70.48ZM41.7406 70.5C41.794 70.22 41.8206 69.92 41.8206 69.6C41.8206 68.6267 41.5273 67.86 40.9406 67.3C40.3673 66.7267 39.634 66.44 38.7406 66.44C38.0606 66.44 37.4073 66.6 36.7806 66.92C36.1673 67.24 35.6406 67.7067 35.2006 68.32C34.7606 68.9333 34.4673 69.6533 34.3206 70.48C34.2673 70.76 34.2406 71.0667 34.2406 71.4C34.2406 72.3867 34.5273 73.1667 35.1006 73.74C35.674 74.3 36.4073 74.58 37.3006 74.58C37.9806 74.58 38.6273 74.42 39.2406 74.1C39.8673 73.7667 40.4006 73.2933 40.8406 72.68C41.294 72.0533 41.594 71.3267 41.7406 70.5ZM57.3363 65.04L55.3963 76H53.5763L53.8563 74.4C53.4163 74.96 52.8563 75.3933 52.1763 75.7C51.4963 76.0067 50.7896 76.16 50.0563 76.16C48.9096 76.16 47.9896 75.8533 47.2963 75.24C46.6163 74.6133 46.2763 73.72 46.2763 72.56C46.2763 72.2667 46.3096 71.9 46.3763 71.46L47.5163 65.04H49.3163L48.2363 71.22C48.1829 71.5 48.1563 71.7933 48.1563 72.1C48.1563 72.9133 48.3763 73.5333 48.8163 73.96C49.2696 74.3733 49.8963 74.58 50.6963 74.58C51.6563 74.58 52.4696 74.28 53.1363 73.68C53.8163 73.08 54.2496 72.2067 54.4363 71.06V71.12L55.5163 65.04H57.3363ZM54.9963 61.94L50.3163 64.22L50.5563 62.86L55.2763 60.36L54.9963 61.94ZM58.7492 70.48C58.9492 69.36 59.3492 68.38 59.9492 67.54C60.5626 66.6867 61.3092 66.0267 62.1892 65.56C63.0692 65.0933 64.0026 64.86 64.9892 64.86C65.8292 64.86 66.5826 65.06 67.2492 65.46C67.9159 65.8467 68.3892 66.36 68.6692 67L69.6892 61.2H71.5292L68.9092 76H67.0692L67.4492 73.94C66.9826 74.5933 66.3559 75.1333 65.5692 75.56C64.7826 75.9733 63.9159 76.18 62.9692 76.18C62.1159 76.18 61.3626 76 60.7092 75.64C60.0559 75.2667 59.5426 74.74 59.1692 74.06C58.8092 73.38 58.6292 72.5933 58.6292 71.7C58.6292 71.3 58.6692 70.8933 58.7492 70.48ZM68.0492 70.5C68.1026 70.22 68.1292 69.92 68.1292 69.6C68.1292 68.6267 67.8359 67.86 67.2492 67.3C66.6759 66.7267 65.9426 66.44 65.0492 66.44C64.3692 66.44 63.7159 66.6 63.0892 66.92C62.4759 67.24 61.9492 67.7067 61.5092 68.32C61.0692 68.9333 60.7759 69.6533 60.6292 70.48C60.5759 70.76 60.5492 71.0667 60.5492 71.4C60.5492 72.3867 60.8359 73.1667 61.4092 73.74C61.9826 74.3 62.7159 74.58 63.6092 74.58C64.2892 74.58 64.9359 74.42 65.5492 74.1C66.1759 73.7667 66.7092 73.2933 67.1492 72.68C67.6026 72.0533 67.9026 71.3267 68.0492 70.5ZM78.6848 64.86C79.6048 64.86 80.3982 65.04 81.0648 65.4C81.7448 65.7467 82.2582 66.24 82.6048 66.88C82.9648 67.5067 83.1448 68.2267 83.1448 69.04C83.1448 69.32 83.1115 69.66 83.0448 70.06C82.9915 70.4067 82.9048 70.7667 82.7848 71.14H74.0248C73.9982 71.4067 73.9848 71.6 73.9848 71.72C73.9848 72.64 74.2582 73.36 74.8048 73.88C75.3648 74.3867 76.0915 74.64 76.9848 74.64C77.7715 74.64 78.4582 74.46 79.0448 74.1C79.6448 73.7267 80.0982 73.2333 80.4048 72.62H82.3648C81.8848 73.6733 81.1448 74.5333 80.1448 75.2C79.1582 75.8533 78.0115 76.18 76.7048 76.18C75.3315 76.18 74.2248 75.7867 73.3848 75C72.5582 74.2 72.1448 73.1133 72.1448 71.74C72.1448 71.3533 72.1848 70.94 72.2648 70.5C72.4648 69.3667 72.8715 68.3733 73.4848 67.52C74.0982 66.6667 74.8515 66.0133 75.7448 65.56C76.6515 65.0933 77.6315 64.86 78.6848 64.86ZM81.2048 69.82C81.2448 69.5533 81.2648 69.3067 81.2648 69.08C81.2648 68.2267 80.9915 67.5667 80.4448 67.1C79.9115 66.6333 79.2115 66.4 78.3448 66.4C77.4115 66.4 76.5648 66.7067 75.8048 67.32C75.0448 67.92 74.5315 68.7533 74.2648 69.82H81.2048ZM97.0442 64.86C97.9642 64.86 98.7576 65.04 99.4242 65.4C100.104 65.7467 100.618 66.24 100.964 66.88C101.324 67.5067 101.504 68.2267 101.504 69.04C101.504 69.32 101.471 69.66 101.404 70.06C101.351 70.4067 101.264 70.7667 101.144 71.14H92.3842C92.3576 71.4067 92.3442 71.6 92.3442 71.72C92.3442 72.64 92.6176 73.36 93.1642 73.88C93.7242 74.3867 94.4509 74.64 95.3442 74.64C96.1309 74.64 96.8176 74.46 97.4042 74.1C98.0042 73.7267 98.4576 73.2333 98.7642 72.62H100.724C100.244 73.6733 99.5042 74.5333 98.5042 75.2C97.5176 75.8533 96.3709 76.18 95.0642 76.18C93.6909 76.18 92.5842 75.7867 91.7442 75C90.9176 74.2 90.5042 73.1133 90.5042 71.74C90.5042 71.3533 90.5442 70.94 90.6242 70.5C90.8242 69.3667 91.2309 68.3733 91.8442 67.52C92.4576 66.6667 93.2109 66.0133 94.1042 65.56C95.0109 65.0933 95.9909 64.86 97.0442 64.86ZM99.5642 69.82C99.6042 69.5533 99.6242 69.3067 99.6242 69.08C99.6242 68.2267 99.3509 67.5667 98.8042 67.1C98.2709 66.6333 97.5709 66.4 96.7042 66.4C95.7709 66.4 94.9242 66.7067 94.1642 67.32C93.4042 67.92 92.8909 68.7533 92.6242 69.82H99.5642ZM119.944 65.6C119.797 66.4267 119.45 67.1133 118.904 67.66C118.37 68.1933 117.717 68.58 116.944 68.82C117.597 68.9267 118.13 69.2467 118.544 69.78C118.957 70.3 119.164 70.92 119.164 71.64C119.164 71.8533 119.144 72.06 119.104 72.26C118.984 72.9667 118.69 73.6067 118.224 74.18C117.77 74.74 117.17 75.1867 116.424 75.52C115.677 75.84 114.837 76 113.904 76H108.704L111.184 62.06H116.184C117.437 62.06 118.384 62.3267 119.024 62.86C119.677 63.3933 120.004 64.0867 120.004 64.94C120.004 65.1533 119.984 65.3733 119.944 65.6ZM118.064 65.82C118.09 65.7 118.104 65.5333 118.104 65.32C118.104 64.7467 117.904 64.3 117.504 63.98C117.104 63.66 116.524 63.5 115.764 63.5H112.744L111.924 68.12H114.984C115.824 68.12 116.517 67.92 117.064 67.52C117.61 67.1067 117.944 66.54 118.064 65.82ZM117.304 72.08C117.344 71.8933 117.364 71.72 117.364 71.56C117.364 70.9467 117.137 70.46 116.684 70.1C116.23 69.74 115.61 69.56 114.824 69.56H111.664L110.784 74.56H114.004C114.897 74.56 115.637 74.34 116.224 73.9C116.81 73.46 117.17 72.8533 117.304 72.08ZM127.669 64.86C128.589 64.86 129.383 65.04 130.049 65.4C130.729 65.7467 131.243 66.24 131.589 66.88C131.949 67.5067 132.129 68.2267 132.129 69.04C132.129 69.32 132.096 69.66 132.029 70.06C131.976 70.4067 131.889 70.7667 131.769 71.14H123.009C122.983 71.4067 122.969 71.6 122.969 71.72C122.969 72.64 123.243 73.36 123.789 73.88C124.349 74.3867 125.076 74.64 125.969 74.64C126.756 74.64 127.443 74.46 128.029 74.1C128.629 73.7267 129.083 73.2333 129.389 72.62H131.349C130.869 73.6733 130.129 74.5333 129.129 75.2C128.143 75.8533 126.996 76.18 125.689 76.18C124.316 76.18 123.209 75.7867 122.369 75C121.543 74.2 121.129 73.1133 121.129 71.74C121.129 71.3533 121.169 70.94 121.249 70.5C121.449 69.3667 121.856 68.3733 122.469 67.52C123.083 66.6667 123.836 66.0133 124.729 65.56C125.636 65.0933 126.616 64.86 127.669 64.86ZM130.189 69.82C130.229 69.5533 130.249 69.3067 130.249 69.08C130.249 68.2267 129.976 67.5667 129.429 67.1C128.896 66.6333 128.196 66.4 127.329 66.4C126.396 66.4 125.549 66.7067 124.789 67.32C124.029 67.92 123.516 68.7533 123.249 69.82H130.189ZM148.532 64.84C149.652 64.84 150.545 65.1467 151.212 65.76C151.892 66.36 152.232 67.24 152.232 68.4C152.232 68.8267 152.198 69.2067 152.132 69.54L150.992 76H149.192L150.292 69.8C150.345 69.52 150.372 69.22 150.372 68.9C150.372 68.0867 150.152 67.4733 149.712 67.06C149.285 66.6333 148.678 66.42 147.892 66.42C146.985 66.42 146.205 66.7 145.552 67.26C144.912 67.8067 144.472 68.6 144.232 69.64L143.092 76H141.292L142.392 69.8C142.445 69.4933 142.472 69.1867 142.472 68.88C142.472 68.08 142.252 67.4733 141.812 67.06C141.385 66.6333 140.778 66.42 139.992 66.42C139.045 66.42 138.238 66.7267 137.572 67.34C136.905 67.94 136.472 68.8133 136.272 69.96V69.92L135.192 76H133.372L135.312 65.04H137.132L136.852 66.62C137.305 66.0467 137.865 65.6067 138.532 65.3C139.198 64.9933 139.898 64.84 140.632 64.84C141.552 64.84 142.325 65.0467 142.952 65.46C143.592 65.8733 144.012 66.48 144.212 67.28C144.665 66.5067 145.278 65.9067 146.052 65.48C146.838 65.0533 147.665 64.84 148.532 64.84ZM163.017 67.9L162.737 69.44H154.757L155.037 67.9H163.017ZM169.033 63.48L168.193 68.26H173.253L173.013 69.66H167.953L167.073 74.56H172.753L172.493 76H164.993L167.473 62.04H174.953L174.693 63.48H169.033ZM179.107 76.18C177.96 76.18 177.02 75.9067 176.287 75.36C175.553 74.8133 175.187 74.08 175.187 73.16C175.187 72.9867 175.193 72.86 175.207 72.78H176.987C176.933 73.3533 177.1 73.82 177.487 74.18C177.887 74.54 178.46 74.72 179.207 74.72C179.953 74.72 180.553 74.58 181.007 74.3C181.473 74.0067 181.707 73.6 181.707 73.08C181.707 72.64 181.52 72.2933 181.147 72.04C180.773 71.7867 180.2 71.5133 179.427 71.22C178.747 70.9667 178.187 70.7267 177.747 70.5C177.307 70.2733 176.933 69.96 176.627 69.56C176.32 69.1467 176.167 68.6267 176.167 68C176.167 67.3867 176.34 66.84 176.687 66.36C177.047 65.88 177.54 65.5133 178.167 65.26C178.807 64.9933 179.533 64.86 180.347 64.86C181.467 64.86 182.387 65.14 183.107 65.7C183.827 66.26 184.187 66.9933 184.187 67.9C184.187 68.0733 184.18 68.2067 184.167 68.3H182.427L182.447 68.06C182.447 67.5267 182.24 67.1067 181.827 66.8C181.427 66.48 180.893 66.32 180.227 66.32C179.573 66.32 179.033 66.4667 178.607 66.76C178.193 67.0533 177.987 67.4467 177.987 67.94C177.987 68.4067 178.18 68.7733 178.567 69.04C178.953 69.3067 179.553 69.6 180.367 69.92C181.047 70.1867 181.593 70.4333 182.007 70.66C182.42 70.8733 182.773 71.1733 183.067 71.56C183.36 71.9467 183.507 72.4333 183.507 73.02C183.507 73.66 183.313 74.22 182.927 74.7C182.553 75.18 182.033 75.5467 181.367 75.8C180.7 76.0533 179.947 76.18 179.107 76.18ZM188.456 73C188.416 73.2 188.396 73.3733 188.396 73.52C188.396 73.8533 188.496 74.0933 188.696 74.24C188.909 74.3867 189.249 74.46 189.716 74.46H191.056L190.776 76H189.136C188.269 76 187.616 75.8333 187.176 75.5C186.749 75.1667 186.536 74.62 186.536 73.86C186.536 73.5667 186.562 73.28 186.616 73L187.756 66.54H186.356L186.616 65.04H188.036L188.516 62.28H190.356L189.876 65.04H192.716L192.456 66.54H189.596L188.456 73ZM193.261 70.48C193.461 69.36 193.861 68.38 194.461 67.54C195.074 66.6867 195.814 66.0267 196.681 65.56C197.561 65.0933 198.494 64.86 199.481 64.86C200.441 64.86 201.234 65.0667 201.861 65.48C202.488 65.8933 202.921 66.4133 203.161 67.04L203.521 65.04H205.361L203.421 76H201.581L201.961 73.96C201.481 74.6 200.848 75.1333 200.061 75.56C199.274 75.9733 198.408 76.18 197.461 76.18C196.608 76.18 195.854 76 195.201 75.64C194.548 75.2667 194.041 74.74 193.681 74.06C193.321 73.38 193.141 72.5933 193.141 71.7C193.141 71.3 193.181 70.8933 193.261 70.48ZM202.561 70.5C202.614 70.22 202.641 69.92 202.641 69.6C202.641 68.6267 202.348 67.86 201.761 67.3C201.188 66.7267 200.454 66.44 199.561 66.44C198.881 66.44 198.228 66.6 197.601 66.92C196.988 67.24 196.461 67.7067 196.021 68.32C195.581 68.9333 195.288 69.6533 195.141 70.48C195.088 70.76 195.061 71.0667 195.061 71.4C195.061 72.3867 195.348 73.1667 195.921 73.74C196.494 74.3 197.228 74.58 198.121 74.58C198.801 74.58 199.448 74.42 200.061 74.1C200.688 73.7667 201.221 73.2933 201.661 72.68C202.114 72.0533 202.414 71.3267 202.561 70.5ZM209.897 67.12C210.337 66.4 210.89 65.84 211.557 65.44C212.223 65.04 212.983 64.84 213.837 64.84L213.497 66.72H213.017C212.07 66.72 211.277 66.9733 210.637 67.48C210.01 67.9867 209.59 68.84 209.377 70.04L208.317 76H206.497L208.437 65.04H210.257L209.897 67.12Z" fill="#52607B"/>
<path d="M0 48H107H156" stroke="url(#paint0_linear_53_2)" stroke-width="3"/>
<defs>
<linearGradient id="paint0_linear_53_2" x1="-2.97343e-06" y1="48.9479" x2="0.227785" y2="42.618" gradientUnits="userSpaceOnUse">
<stop offset="0.0166455" stop-color="#F0FE0A"/>
<stop offset="0.985525" stop-color="#2AE6D3"/>
</linearGradient>
</defs>
</svg>
