<svg width="80" height="81" viewBox="0 0 80 81" fill="none" xmlns="http://www.w3.org/2000/svg">
<rect y="0.512821" width="80" height="80" rx="5.23" fill="#EAEAEA"/>
<g clip-path="url(#clip0_12_9)">
<path d="M39.5 4.05128C38.7713 4.05128 38.1807 4.64198 38.1807 5.37056V75.732C38.1807 76.4606 38.7713 77.0513 39.5 77.0513C40.2287 77.0513 40.8193 76.4606 40.8193 75.732V5.37056C40.8193 4.64198 40.2287 4.05128 39.5 4.05128Z" fill="#0D2848"/>
<path d="M11.3554 24.2803H25.4277C28.5801 24.2803 31.1445 26.845 31.1445 29.9971C31.1445 30.7257 31.7351 31.3164 32.4638 31.3164C33.1925 31.3164 33.783 30.7257 33.783 29.9971C33.783 25.39 30.0347 21.6417 25.4277 21.6417H23.6651C24.4952 20.5384 24.988 19.1678 24.988 17.6839C24.988 14.0466 22.0289 11.0875 18.3916 11.0875C14.7543 11.0875 11.7952 14.0464 11.7952 17.6837C11.7952 19.1677 12.288 20.5383 13.1181 21.6416H11.3554C6.74838 21.6416 3 25.39 3 29.9971V38.7923C3 42.9506 6.05345 46.4092 10.0361 47.0437V65.1778C10.0361 67.8452 12.2063 70.0152 14.8735 70.0152C16.2582 70.0152 17.5089 69.4303 18.3916 68.4947C19.2743 69.4303 20.525 70.0152 21.9097 70.0152C24.5769 70.0152 26.7471 67.8453 26.7471 65.1778V47.0437C30.7297 46.4092 33.7832 42.9506 33.7832 38.7923L33.7802 29.7771C33.7802 29.0485 33.1896 28.4578 32.4609 28.4578C31.7322 28.4578 31.1416 29.0485 31.1416 29.7771C31.1416 30.5057 31.1446 38.7923 31.1446 38.7923C31.1446 41.4904 29.2652 43.7564 26.7471 44.3538V29.9971C26.7471 29.2685 26.1565 28.6778 25.4278 28.6778C24.6991 28.6778 24.1086 29.2685 24.1086 29.9971V45.8284V65.1778C24.1086 66.3903 23.1222 67.3766 21.9097 67.3766C20.6972 67.3766 19.7109 66.3903 19.7109 65.1778V49.3465C19.7109 48.6179 19.1203 48.0272 18.3916 48.0272C17.6629 48.0272 17.0723 48.6179 17.0723 49.3465V65.1778C17.0723 66.3903 16.086 67.3766 14.8735 67.3766C13.661 67.3766 12.6746 66.3903 12.6746 65.1778V45.8284V29.9971C12.6746 29.2685 12.0841 28.6778 11.3554 28.6778C10.6266 28.6778 10.0361 29.2685 10.0361 29.9971V44.3538C7.51802 43.7564 5.63855 41.4904 5.63855 38.7923V29.9971C5.63855 26.8448 8.20311 24.2803 11.3554 24.2803ZM14.4338 17.6837C14.4338 15.5013 16.2093 13.7259 18.3916 13.7259C20.5739 13.7259 22.3494 15.5013 22.3494 17.6837C22.3494 19.8662 20.5739 21.6416 18.3916 21.6416C16.2093 21.6416 14.4338 19.8662 14.4338 17.6837Z" fill="#0D2848"/>
<path d="M67.6446 28.6778C66.9159 28.6778 66.3254 29.2685 66.3254 29.9971V40.5513C66.3254 40.6035 66.3292 40.6547 66.3351 40.7054C66.3366 40.7181 66.3389 40.7305 66.3409 40.7432C66.3469 40.7841 66.3546 40.8245 66.3643 40.8642C66.3674 40.8772 66.3706 40.89 66.3743 40.9029C66.3868 40.9482 66.4015 40.9927 66.4186 41.0362C66.4207 41.0415 66.4223 41.0469 66.4245 41.0522C66.445 41.1023 66.4688 41.1508 66.4952 41.1976C66.4966 41.2002 66.4976 41.2032 66.4992 41.2059C66.5024 41.2117 66.507 41.2171 66.5106 41.223C66.5348 41.2637 66.561 41.303 66.5894 41.3409C66.5974 41.3516 66.6051 41.3626 66.6134 41.373C66.6464 41.4143 66.6814 41.4541 66.7193 41.4912C66.7276 41.4993 66.7364 41.5064 66.745 41.5144C66.7768 41.5443 66.8103 41.5724 66.8451 41.5989C66.856 41.6072 66.8666 41.6155 66.8776 41.6235C66.9657 41.6866 67.0618 41.7392 67.1643 41.7793C67.1716 41.7822 67.1788 41.7846 67.1863 41.7874C67.2307 41.804 67.2764 41.8181 67.323 41.8296C67.3322 41.8319 67.3417 41.8348 67.3509 41.8369C67.4034 41.8489 67.4564 41.8587 67.511 41.8641C67.5185 41.8649 67.526 41.8647 67.5331 41.8651C67.5699 41.8683 67.607 41.8707 67.6446 41.8707C67.6512 41.8707 67.6575 41.8698 67.664 41.8697C67.6724 41.8696 67.6809 41.871 67.6891 41.8706C72.276 41.8463 76 38.1075 76 33.5152V29.9971C76 25.39 72.2516 21.6417 67.6446 21.6417H65.8819C66.7122 20.5384 67.2049 19.1678 67.2049 17.6839C67.2049 14.0466 64.2459 11.0875 60.6086 11.0875C56.9712 11.0875 54.0122 14.0466 54.0122 17.6839C54.0122 19.1678 54.5049 20.5384 55.3352 21.6417H53.5725C48.9653 21.6417 45.2171 25.3901 45.2171 29.9971V33.5152C45.2171 37.391 47.8693 40.6588 51.4545 41.5987L45.3909 52.21C45.1576 52.6182 45.1592 53.12 45.3952 53.5269C45.6314 53.9335 46.066 54.1839 46.5362 54.1839H52.2533V65.1778C52.2533 67.8452 54.4235 70.0152 57.0907 70.0152C58.4754 70.0152 59.7261 69.4303 60.6088 68.4947C61.4915 69.4303 62.7422 70.0152 64.127 70.0152C66.7942 70.0152 68.9643 67.8453 68.9643 65.1778V54.1839H74.6812C75.1515 54.1839 75.5862 53.9335 75.8221 53.5269C76.0583 53.12 76.0599 52.6185 75.8265 52.21L68.9042 40.0637C68.5427 39.4309 67.7367 39.2111 67.1043 39.5729C66.4715 39.9343 66.2518 40.7402 66.6134 41.373L72.4073 51.5453H67.6445C66.9158 51.5453 66.3252 52.136 66.3252 52.8646V65.1778C66.3252 66.3903 65.3389 67.3766 64.1264 67.3766C62.9139 67.3766 61.9275 66.3903 61.9275 65.1778V52.8646C61.9275 52.136 61.337 51.5453 60.6083 51.5453C59.8795 51.5453 59.289 52.136 59.289 52.8646V65.1778C59.289 66.3903 58.3026 67.3766 57.0902 67.3766C55.8777 67.3766 54.8913 66.3903 54.8913 65.1778V52.8646C54.8913 52.136 54.3007 51.5453 53.572 51.5453H48.8092L54.7175 41.2059C54.7191 41.2033 54.7199 41.2003 54.7215 41.1976C54.7479 41.1508 54.7717 41.1022 54.7924 41.0522C54.7945 41.0469 54.7961 41.0416 54.7982 41.0363C54.8155 40.9928 54.83 40.9484 54.8425 40.9029C54.8463 40.8899 54.8494 40.8771 54.8525 40.8638C54.8622 40.8242 54.8699 40.784 54.8759 40.7432C54.8776 40.7305 54.8802 40.7181 54.8818 40.7054C54.8876 40.6548 54.8915 40.6036 54.8915 40.5513V29.9971C54.8915 29.2685 54.3009 28.6778 53.5722 28.6778C52.8435 28.6778 52.2529 29.2685 52.2529 29.9971V39.0767C49.7348 38.4793 47.8554 36.2133 47.8554 33.5152V29.9971C47.8554 26.8448 50.4199 24.2803 53.5722 24.2803H67.6445C70.7969 24.2803 73.3613 26.845 73.3613 29.9971V33.5152C73.3613 36.2133 71.4818 38.4793 68.9638 39.0767V29.9974C68.9639 29.2685 68.3734 28.6778 67.6446 28.6778ZM56.6506 17.6837C56.6506 15.5013 58.4261 13.7259 60.6084 13.7259C62.7907 13.7259 64.5662 15.5013 64.5662 17.6837C64.5662 19.8662 62.7907 21.6416 60.6084 21.6416C58.4261 21.6416 56.6506 19.8662 56.6506 17.6837Z" fill="#0D2848"/>
</g>
<defs>
<clipPath id="clip0_12_9">
<rect width="73" height="73" fill="white" transform="translate(3 4.05128)"/>
</clipPath>
</defs>
</svg>
