<svg width="204" height="204" viewBox="0 0 204 204" fill="none" xmlns="http://www.w3.org/2000/svg">
<g clip-path="url(#clip0_118_150)">
<path d="M123.129 33.5154C132.384 33.5154 139.887 26.0128 139.887 16.7577C139.887 7.50269 132.384 0 123.129 0C113.874 0 106.371 7.50269 106.371 16.7577C106.371 26.0128 113.874 33.5154 123.129 33.5154Z" fill="#0D2848"/>
<path d="M71.1362 49.5833C67.405 51.2412 63.8214 52.9575 60.4369 54.6566C50.1839 59.8054 59.1943 75.1489 69.4199 70.0172C70.0206 69.7186 70.6316 69.444 71.2323 69.1522C70.9302 62.6784 70.8067 56.136 71.1362 49.5833Z" fill="#0D2848"/>
<path d="M146.313 49.5695C146.855 46.4939 145.657 43.3428 141.768 41.6746C126.991 35.3278 110.082 36.6974 93.9833 41.1975C93.9867 41.8497 93.9558 42.5053 93.8528 43.1678C93.0153 48.5638 92.8402 53.2149 92.9466 58.7722L123.133 57.6978C123.133 57.6978 127.361 58.8099 124.21 60.3134C119.772 60.509 90.4821 61.9198 90.4821 61.9198C90.1217 54.4712 90.0976 47.0088 91.2304 39.7009C92.9672 28.4799 75.8285 23.6606 74.0745 34.9709C71.8021 49.6141 72.9005 64.1338 73.7587 78.8457C74.1294 85.2955 81.1181 90.3002 87.1422 86.5278C91.4844 83.8058 95.6687 80.7508 99.6573 77.459L99.6435 83.2085L99.52 145.218V194.406C99.52 199.702 103.392 204 108.839 204C114.28 204 118.701 199.702 118.701 194.406V124.101H127.406C127.406 140.573 127.406 178.17 127.406 194.646C127.406 206.118 145.2 206.118 145.2 194.646C145.2 178.17 145.2 161.697 145.2 145.231C148.829 70.944 148.842 71.1671 146.313 49.5695Z" fill="#0D2848"/>
</g>
<defs>
<clipPath id="clip0_118_150">
<rect width="204" height="204" fill="white"/>
</clipPath>
</defs>
</svg>
