<svg width="204" height="204" viewBox="0 0 204 204" fill="none" xmlns="http://www.w3.org/2000/svg">
<path d="M137.597 146.493L134.41 114.841L134.597 50.0464C134.597 43.7706 129.509 38.6825 123.233 38.6825H102.967C97.565 38.6825 93.0435 42.4525 91.8892 47.5047L99.1954 46.3967L75.8054 57.3832C73.3622 58.5295 71.6278 60.8277 71.2242 63.5359C70.3054 69.7062 67.496 88.5611 66.4461 95.6107C65.7409 100.337 69.2583 104.637 74.0208 104.907C78.153 105.144 81.8777 102.19 82.5024 98.0025L86.6394 70.2321L106.593 60.8716L91.8295 73.1511L91.6032 74.6699V112.256L87.3359 106.021C84.795 110.063 80.4257 113.071 75.8054 113.071C72.8195 113.071 70.6301 112.725 68.1012 110.707L93.6691 148.295C95.9681 151.678 100.21 153.152 104.107 151.933C108.008 150.712 110.649 147.082 110.61 142.995L110.339 114.84H115.772L119.051 147.42L114.382 193.798C113.834 199.249 118.107 204 123.619 204C128.321 204 132.352 200.435 132.833 195.656L137.595 148.349C137.659 147.733 137.659 147.11 137.597 146.493Z" fill="#0D2848"/>
<path d="M113.187 33.645C122.478 33.645 130.01 26.1133 130.01 16.8225C130.01 7.53169 122.478 0 113.187 0C103.897 0 96.3649 7.53169 96.3649 16.8225C96.3649 26.1133 103.897 33.645 113.187 33.645Z" fill="#0D2848"/>
</svg>
