<svg width="204" height="204" viewBox="0 0 204 204" fill="none" xmlns="http://www.w3.org/2000/svg">
<g clip-path="url(#clip0_118_142)">
<path d="M136.961 93.8395C124.379 67.2379 126.312 71.4421 125.817 70.0052L114.233 36.3306C113.989 35.6215 113.636 34.9549 113.187 34.354L89.6625 2.89768C87.2739 -0.296698 82.7464 -0.950829 79.5512 1.43908C76.3563 3.82809 75.7031 8.35512 78.0921 11.5499L100.939 42.1003L109.074 65.7492L54.4157 91.6026C53.1966 92.0226 48.8155 94.2342 47.9835 99.5192L36.3812 193.182C35.6703 198.923 40.1446 203.999 45.9519 203.999C50.7428 203.999 54.8942 200.427 55.4982 195.55L66.0229 110.591L76.6486 124.167L98.6043 197.141C100.137 202.234 105.507 205.122 110.603 203.589C115.696 202.057 118.583 196.685 117.051 191.591L95.7474 120.785L122.549 107.201L115.799 138.188C115.654 138.853 115.604 139.536 115.65 140.215L117.973 174.387C118.244 178.363 121.685 181.374 125.671 181.104C129.651 180.833 132.658 177.387 132.388 173.407L130.134 140.26L138.03 104.014C138.871 99.8935 138.076 96.6011 136.961 93.8395Z" fill="#0D2848"/>
<path d="M150.973 86.2774C160.205 86.2774 167.689 78.7934 167.689 69.5614C167.689 60.3294 160.205 52.8453 150.973 52.8453C141.741 52.8453 134.257 60.3294 134.257 69.5614C134.257 78.7934 141.741 86.2774 150.973 86.2774Z" fill="#0D2848"/>
</g>
<defs>
<clipPath id="clip0_118_142">
<rect width="204" height="204" fill="white"/>
</clipPath>
</defs>
</svg>
