<svg width="204" height="204" viewBox="0 0 204 204" fill="none" xmlns="http://www.w3.org/2000/svg">
<g clip-path="url(#clip0_118_84)">
<path d="M203.83 39.5267C203.895 38.6083 203.932 37.6917 203.921 36.7785C203.898 34.1478 203.597 31.5031 203.019 28.9267C200.321 16.8421 191.048 4.705 176.408 4.82944L98.9881 5.4972C84.6181 5.61989 75.0889 18.3161 72.3145 30.0606C72.3145 30.0606 71.2418 33.764 71.3628 37.6934C71.4785 41.4511 72.3881 45.6312 72.3881 45.6312L72.4056 45.7346C73.0138 48.1287 73.9129 50.5456 75.0626 52.8872L75.2835 146.134C75.301 153.644 81.3932 159.717 88.9016 159.717C88.9121 159.717 88.9244 159.717 88.9331 159.717C96.4555 159.699 102.537 153.588 102.52 146.067L102.337 69.8406L171.813 69.2429V185.712C171.813 194.598 179.016 201.807 187.905 201.807C196.791 201.807 204.002 194.603 204.002 185.712V41.7123C203.995 40.9691 203.928 40.2435 203.83 39.5267Z" fill="#0D2848"/>
<path d="M35.0741 72.3417C54.445 72.3417 70.1482 56.6385 70.1482 37.2676C70.1482 17.8967 54.445 2.19348 35.0741 2.19348C15.7032 2.19348 0 17.8967 0 37.2676C0 56.6385 15.7032 72.3417 35.0741 72.3417Z" fill="#0D2848"/>
</g>
<defs>
<clipPath id="clip0_118_84">
<rect width="204" height="204" fill="white"/>
</clipPath>
</defs>
</svg>
