<svg width="204" height="204" viewBox="0 0 204 204" fill="none" xmlns="http://www.w3.org/2000/svg">
<g clip-path="url(#clip0_118_164)">
<path d="M104.306 43.0844C114.346 43.0844 122.484 34.9459 122.484 24.9066C122.484 14.8673 114.346 6.72888 104.306 6.72888C94.2672 6.72888 86.1287 14.8673 86.1287 24.9066C86.1287 34.9459 94.2672 43.0844 104.306 43.0844Z" fill="#0D2848"/>
<path d="M160.1 76.8226C150.192 67.0317 122.501 53.5104 117.988 51.351C115.057 49.0445 111.373 47.6372 107.111 47.6071C106.025 47.6004 104.938 47.7174 103.859 47.9213C103.605 47.8478 103.367 47.7408 103.1 47.6907L59.8315 39.1901V0H41.0019V204H59.8315V59.1195L88.5021 64.752C88.4954 65.1498 88.4787 65.5442 88.5054 65.9453C89.4213 80.0383 90.3339 94.1346 91.2498 108.228C91.2799 108.649 91.3333 109.056 91.3835 109.481C92.6136 136.972 95.6421 164.288 98.9113 191.619C100.556 205.344 122.307 205.501 120.639 191.619C119.914 185.551 119.202 179.481 118.516 173.414C121.114 173.585 123.851 172.862 126.332 170.864C136.921 162.35 147.023 151.629 147.167 137.236C147.267 126.429 140.01 118.196 131.406 112.072C131.861 111.928 132.312 111.741 132.746 111.523C138.015 108.849 143.664 104.083 149.112 99.4696C152.495 96.6149 155.995 93.6565 158.612 91.9284C161.066 90.3038 162.667 87.6564 162.948 84.7248C163.245 81.7932 162.196 78.8917 160.1 76.8226ZM116.187 151.375C115.378 143.069 114.669 134.742 114.091 126.422C119.299 129.073 124.941 132.736 125.443 137.239C126.007 142.387 120.9 147.484 116.187 151.375ZM136.497 84.5409C133.385 87.1683 130.002 90.023 127.127 92.0621C126.816 87.2385 126.499 82.4116 126.188 77.5914C130.032 79.714 133.826 81.9069 137.139 83.9961C136.935 84.1766 136.718 84.3571 136.497 84.5409Z" fill="#0D2848"/>
</g>
<defs>
<clipPath id="clip0_118_164">
<rect width="204" height="204" fill="white"/>
</clipPath>
</defs>
</svg>
