<svg width="204" height="204" viewBox="0 0 204 204" fill="none" xmlns="http://www.w3.org/2000/svg">
<g clip-path="url(#clip0_118_2)">
<path d="M142.368 100.37L129.227 75.1832C128.059 72.7756 125.994 71.3374 123.811 70.0722L102.663 58.0217L102.813 29.8361L125.655 11.5529C128.452 9.31371 128.904 5.2307 126.665 2.43332C124.427 -0.363609 120.344 -0.817129 117.546 1.42299L92.2881 21.6408C90.7595 22.8639 89.8653 24.7126 89.8547 26.6707L89.6641 62.2861L62.0999 110.662C61.5312 111.875 60.8959 112.73 60.8959 115.048V195.348C60.8959 200.126 64.7688 203.998 69.546 203.998C74.3237 203.998 78.1962 200.125 78.1962 195.348V122.942L81.7906 124.989L91.5442 196.517C92.1901 201.254 96.5546 204.565 101.284 203.919C106.017 203.274 109.331 198.913 108.686 194.18L99.028 123.354L102.956 116.46L137.842 109.741C139.855 109.353 141.566 108.038 142.458 106.192C143.349 104.346 143.316 102.187 142.368 100.37ZM111.414 101.617L120.272 86.0708L126.834 98.6475L111.414 101.617Z" fill="#0D2848"/>
<path d="M121.601 60.0016C129.892 60.0016 136.613 53.2802 136.613 44.9889C136.613 36.6976 129.892 29.9762 121.601 29.9762C113.309 29.9762 106.588 36.6976 106.588 44.9889C106.588 53.2802 113.309 60.0016 121.601 60.0016Z" fill="#0D2848"/>
</g>
<defs>
<clipPath id="clip0_118_2">
<rect width="204" height="204" fill="white"/>
</clipPath>
</defs>
</svg>
