<svg width="405" height="154" viewBox="0 0 405 154" fill="none" xmlns="http://www.w3.org/2000/svg">
<path fill-rule="evenodd" clip-rule="evenodd" d="M289.619 48.5958C292.242 48.6133 294.618 48.4372 294.898 48.1987C296.002 47.2617 295.066 46.4924 293.343 46.9215C292.34 47.1757 290.368 47.3518 288.956 47.316C287.546 47.2799 286.046 47.546 285.621 47.9045C285.146 48.3073 286.688 48.5723 289.619 48.5958Z" fill="#4DABEE"/>
<path fill-rule="evenodd" clip-rule="evenodd" d="M183.389 64.0322C183.454 64.386 184.716 64.4709 186.194 64.2224C187.673 63.9739 188.832 63.482 188.767 63.1283C188.702 62.7765 187.436 62.6923 185.957 62.9407C184.479 63.1892 183.324 63.6804 183.389 64.0322Z" fill="#4DABEE"/>
<path fill-rule="evenodd" clip-rule="evenodd" d="M251.764 60.2291C251.247 60.9317 252.175 61.7205 253.297 61.532C253.832 61.442 254.186 60.9361 254.088 60.4064C253.909 59.4399 252.427 59.3282 251.764 60.2291Z" fill="#4DABEE"/>
<path fill-rule="evenodd" clip-rule="evenodd" d="M322.416 42.3433C326.292 41.2572 328.001 40.2325 326.722 39.7498C326.381 39.6238 323.718 39.7067 320.806 39.9351C315.266 40.368 314.547 40.8776 317.088 42.5772C318.176 43.3032 319.141 43.2565 322.416 42.3433Z" fill="#4DABEE"/>
<path fill-rule="evenodd" clip-rule="evenodd" d="M246.301 61.3841C246.595 61.6974 247.253 61.8858 247.764 61.7999C248.273 61.7143 248.825 61.3224 248.989 60.9321C249.157 60.5272 248.528 60.3479 247.526 60.5163C246.523 60.685 245.998 61.0583 246.301 61.3841Z" fill="#4DABEE"/>
<path fill-rule="evenodd" clip-rule="evenodd" d="M199.452 59.9231C198.894 60.3557 197.575 60.5915 196.377 60.4718C194.726 60.3049 193.912 60.6191 192.554 61.9357C189.904 64.4978 191.497 64.7424 198.455 62.8433C201.878 61.9032 205.42 61.0109 206.324 60.8488C207.501 60.6431 207.726 60.4019 207.116 59.9943C205.789 59.1052 200.561 59.0571 199.452 59.9231Z" fill="#4DABEE"/>
<path fill-rule="evenodd" clip-rule="evenodd" d="M274.112 48.7826C274.178 49.1363 274.987 49.2972 275.912 49.1418C276.835 48.9867 277.538 48.5716 277.472 48.2178C277.407 47.866 276.598 47.7051 275.675 47.8602C274.75 48.0156 274.047 48.4308 274.112 48.7826Z" fill="#4DABEE"/>
<path fill-rule="evenodd" clip-rule="evenodd" d="M311.161 48.0382C313.847 47.7961 317.256 47.6894 318.74 47.8026C324.36 48.2374 332.012 48.3522 335.132 48.049C336.916 47.8827 338.801 47.9546 339.322 48.2158C339.842 48.4732 340.831 48.7774 341.519 48.891C342.206 48.9988 342.856 49.5651 342.962 50.1392C343.105 50.9105 343.446 51.0008 344.238 50.4809C346.299 49.1199 349.497 49.0926 354.331 50.3909C357 51.1102 359.239 51.9757 359.302 52.3179C359.365 52.66 359.869 52.8643 360.425 52.7709C360.979 52.6779 361.353 52.1685 361.255 51.6389C361.031 50.4268 361.759 50.2964 363.642 51.2177C364.476 51.6236 364.756 52.009 364.284 52.1003C363.824 52.1877 363.534 52.7267 363.639 53.2931C363.793 54.1243 363.361 54.3224 361.455 54.304C357.937 54.2654 358.045 55.4892 361.706 57.1858C365.175 58.7913 367.874 58.5787 367.192 56.7521C366.594 55.1364 368.921 55.0104 371.575 56.5115C374.293 58.0478 375.588 57.9459 375.268 56.2196C375.138 55.5141 374.729 54.9907 374.36 55.0527C373.989 55.1151 373.634 54.876 373.567 54.5183C373.449 53.8785 373.663 53.9143 377.973 55.1869C378.853 55.4456 380.501 55.7526 381.636 55.8629C383.351 56.0369 383.718 55.8597 383.809 54.804C383.9 53.7143 384.17 53.5993 385.709 53.9763C387.14 54.3298 387.597 54.2111 387.949 53.3886C388.583 51.9146 388.138 50.1059 387.092 49.909C386.597 49.8128 385.944 48.7007 385.635 47.4272C384.883 44.3187 383.256 43.2228 381.553 44.689C380.541 45.5549 380.104 45.6362 379.297 45.0942C378.487 44.5567 378.453 44.2933 379.114 43.7317C380.059 42.929 379.186 41.6886 377.835 41.9156C377.334 41.9998 376.872 42.4044 376.807 42.8119C376.674 43.6754 369.648 42.9609 367.741 41.8862C367.087 41.5258 365.91 41.5063 365.125 41.8476C364.036 42.3237 363.747 42.2308 363.905 41.4487C364.156 40.2185 360.196 39.9096 356.288 40.8495C354.906 41.1874 353.357 41.2484 352.85 40.9948C352.341 40.7415 350.344 40.4115 348.412 40.2638C346.478 40.1166 344.562 39.7968 344.156 39.5561C343.749 39.3135 342.534 39.2647 341.453 39.4464C339.784 39.7269 339.64 39.8986 340.503 40.5966C341.061 41.047 342.078 41.3225 342.764 41.2073C343.451 41.0918 344.636 41.632 345.403 42.41C347.007 44.038 349.759 44.3486 356.989 43.7215C359.786 43.4806 362.277 43.4663 362.528 43.6932C363.428 44.5226 367.08 45.047 369.312 44.6717C370.568 44.4607 371.839 44.5519 372.141 44.8739C372.441 45.1962 373.181 45.297 373.782 45.0964C374.502 44.8537 375.046 45.2306 375.379 46.2051C376.186 48.567 375.178 49.0972 371.673 48.1517C369.753 47.6331 366.655 47.4763 364.017 47.7622C357.793 48.4417 352.197 48.1923 350.379 47.1585C349.396 46.5983 347.283 46.4371 344.579 46.7143C341.745 47.0033 339.979 46.8497 339.297 46.2588C338.692 45.7385 336.861 45.4783 334.854 45.6302C332.973 45.7771 328.021 45.9676 323.842 46.0501C319.666 46.1401 315.422 46.3652 314.408 46.5495C313.165 46.7785 312.506 46.5624 312.38 45.8839C312.234 45.0894 311.741 45.0386 310.081 45.6385C307.475 46.5848 305.574 47.2572 304.716 47.537C302.92 48.1278 306.852 48.4356 311.161 48.0382Z" fill="#4DABEE"/>
<path fill-rule="evenodd" clip-rule="evenodd" d="M340.513 45.327C341.007 45.4252 341.764 45.298 342.194 45.0444C342.623 44.7869 342.217 44.7057 341.292 44.8611C340.369 45.0162 340.019 45.2246 340.513 45.327Z" fill="#4DABEE"/>
<path fill-rule="evenodd" clip-rule="evenodd" d="M264.859 43.3976C269.059 42.1076 269.084 40.3873 264.891 41.076C262.753 41.4276 262.256 41.3417 262.921 40.7316C263.559 40.1479 262.678 40.1406 259.798 40.7005C257.313 41.1858 255.404 41.9274 254.789 42.6506C254.238 43.2913 253.831 44.0255 253.878 44.2826C254.021 45.0539 261.395 44.4561 264.859 43.3976Z" fill="#4DABEE"/>
<path fill-rule="evenodd" clip-rule="evenodd" d="M273.526 42.4808C276.436 43.1596 278.433 43.0453 280.091 42.0949C281.84 41.0933 280.208 40.4906 277.138 41.0066C275.495 41.2827 274.1 41.2223 274.034 40.8666C273.969 40.5167 273.158 40.3562 272.235 40.5113C269.802 40.9203 270.334 41.7297 273.526 42.4808Z" fill="#4DABEE"/>
<path fill-rule="evenodd" clip-rule="evenodd" d="M250.334 43.862C250.005 44.1444 249.762 44.5002 249.79 44.6549C249.819 44.8115 250.143 44.8867 250.512 44.8246C250.883 44.7623 251.128 44.4061 251.059 44.033C250.991 43.6618 250.664 43.5812 250.334 43.862Z" fill="#4DABEE"/>
<path fill-rule="evenodd" clip-rule="evenodd" d="M310.217 42.0918C311.566 41.0838 311.811 39.4142 310.481 40.3035C310.056 40.5862 309.192 41.0922 308.564 41.4289C307.834 41.8188 307.693 42.2251 308.177 42.5463C308.661 42.8676 309.399 42.7058 310.217 42.0918Z" fill="#4DABEE"/>
<path fill-rule="evenodd" clip-rule="evenodd" d="M281.459 88.5035C281.524 88.8534 282.182 89.0437 282.922 88.9193C283.66 88.7953 284.213 88.4014 284.148 88.0516C284.083 87.6997 283.423 87.5117 282.685 87.6358C281.945 87.7602 281.394 88.1517 281.459 88.5035Z" fill="#4DABEE"/>
<path fill-rule="evenodd" clip-rule="evenodd" d="M260.319 88.3199C259.788 88.6245 259.409 89.1726 259.476 89.5341C259.627 90.3518 260.325 90.2465 261.479 89.2432C262.568 88.3027 261.643 87.5633 260.319 88.3199Z" fill="#4DABEE"/>
<mask id="mask0_1_119" style="mask-type:luminance" maskUnits="userSpaceOnUse" x="0" y="0" width="405" height="151">
<path fill-rule="evenodd" clip-rule="evenodd" d="M0 66.3793L388.934 0.877496L404.505 85.2219L15.571 150.724L0 66.3793Z" fill="white"/>
</mask>
<g mask="url(#mask0_1_119)">
<path fill-rule="evenodd" clip-rule="evenodd" d="M201.882 100.519C200.457 100.759 199.706 101.154 200.024 101.493C200.318 101.807 201.449 101.916 202.535 101.733C203.622 101.55 204.459 101.111 204.394 100.759C204.329 100.407 203.198 100.298 201.882 100.519Z" fill="#4DABEE"/>
<path fill-rule="evenodd" clip-rule="evenodd" d="M351.219 77.1897C350.766 77.4571 350.182 77.5313 349.92 77.3581C349.657 77.1791 350.027 76.9635 350.739 76.8696C351.531 76.7725 351.717 76.8967 351.219 77.1897ZM344.369 77.8923C344 77.9543 343.458 77.7465 343.166 77.4329C342.872 77.1196 342.932 76.8105 343.301 76.7485C343.672 76.6861 344.216 76.8936 344.51 77.2069C344.803 77.5205 344.741 77.8299 344.369 77.8923ZM316.211 78.6592C314.534 78.9411 313.459 78.1032 314.433 77.2758C314.803 76.9666 315.677 77.0927 316.378 77.5608C317.559 78.3509 317.546 78.4349 316.211 78.6592ZM305.181 65.935C303.364 66.2862 302.803 66.0695 303.689 65.3645C303.936 65.1654 304.788 65.132 305.58 65.2918C306.837 65.5429 306.786 65.6253 305.181 65.935ZM299.503 67.0846C296.743 67.7938 292.428 67.8095 294.138 67.1036C295.616 66.4924 302.493 65.4798 302.563 65.8587C302.608 66.0903 301.23 66.641 299.503 67.0846ZM260.827 91.911C258.727 92.278 256.769 92.3181 256.474 92.0048C256.18 91.6915 256.182 91.3762 256.477 91.3048C256.77 91.2315 258.094 90.8815 259.411 90.5186C260.826 90.1313 262.395 90.1466 263.23 90.5564C264.505 91.1772 264.261 91.3159 260.827 91.911ZM234.105 87.8938C233.564 88.6306 228.495 89.5663 213.123 91.7695C211.45 92.0088 209.421 91.9792 208.607 91.7073C207.795 91.4293 204.55 91.5861 201.394 92.0487C193.816 93.1631 192.42 93.2782 191.388 92.8637C190.911 92.6746 190.073 92.7757 189.524 93.0853C188.868 93.4645 188.463 93.3074 188.337 92.627C188.232 92.0606 187.693 91.675 187.139 91.768C186.585 91.8611 186.069 91.613 185.996 91.2167C185.903 90.7141 186.873 90.4673 189.14 90.4112C192.296 90.3352 198.557 89.3046 206.015 87.6385C208.266 87.1365 210.411 87.077 211.849 87.483C213.1 87.8368 216.581 87.8457 219.58 87.501C222.582 87.1598 225.438 87.0904 225.932 87.3441C226.837 87.814 229.057 87.8115 232.71 87.3371C234.147 87.1474 234.537 87.3049 234.105 87.8938ZM169.479 67.3938C168.232 68.6339 164.924 69.3993 164.194 68.6151C163.933 68.3361 161.543 68.4407 158.884 68.8498C156.224 69.2551 153.889 69.4802 153.693 69.3477C153.292 69.0802 156.629 67.5107 157.698 67.4647C158.075 67.4471 161.132 67.1745 164.492 66.8588C169.932 66.351 170.472 66.4078 169.479 67.3938ZM120.944 75.7235C118.26 76.1568 116.017 76.2527 115.957 75.9298C115.898 75.6109 116.545 75.2311 117.395 75.0882C118.245 74.9454 119.184 74.4946 119.481 74.0918C120.276 73.0094 131.554 70.3522 131.713 71.2105C131.935 72.411 125.984 74.9043 120.944 75.7235ZM113.477 73.7578C112.738 74.3982 112.77 74.7377 113.656 75.6831C114.986 77.0999 114.27 77.4474 106.345 79.2141C103.322 79.8856 100.831 80.3223 100.805 80.1812C100.723 79.7385 104.675 77.4019 107.85 76.0152C109.533 75.2779 111.024 74.3993 111.165 74.0647C111.307 73.7239 112.085 73.342 112.897 73.2115C114.089 73.0191 114.199 73.1262 113.477 73.7578ZM164.146 52.0562C165.022 51.9247 165.016 52.0593 164.111 52.7835C163.505 53.2721 162.859 53.5699 162.673 53.4457C162.115 53.0712 163.009 52.2293 164.146 52.0562ZM167.061 50.8861C167.692 50.7801 167.875 50.1414 167.587 49.0458C167.227 47.6791 167.501 47.2065 169.062 46.4877C171.568 45.3429 172.96 45.6212 172.82 47.2512C172.74 48.1836 173.106 48.5346 174.131 48.5058C174.916 48.4855 175.728 48.7735 175.937 49.145C176.439 50.0374 174.206 50.9868 169.86 51.7272C167.919 52.0615 166.28 52.0439 166.215 51.6901C166.15 51.3383 166.528 50.9757 167.061 50.8861ZM187.887 50.8557C189.364 50.6134 189.916 50.6581 189.109 50.9513C188.302 51.2444 187.09 51.4421 186.418 51.3897C185.745 51.3373 186.408 51.0984 187.887 50.8557ZM196.257 50.2262L200.916 50.1267L197.508 51.2996C194.991 52.1631 193.793 52.3007 192.931 51.8337C190.807 50.6799 191.543 50.321 196.257 50.2262ZM204.714 49.2351C206.548 48.8969 208.784 47.941 210.031 46.964C212.427 45.0983 214.454 44.5263 215.338 45.4721C215.69 45.8494 216.795 45.7792 218.119 45.3055C220.344 44.5069 221.017 44.922 219.918 46.4202C219.486 47.0092 219.558 47.3299 220.176 47.5648C220.694 47.7648 221.085 47.3324 221.157 46.483C221.254 45.3565 221.8 44.9857 223.887 44.6349C226.803 44.1448 227.426 44.915 225.354 46.4513C224.6 47.0066 223.852 47.7562 223.689 48.1104C223.528 48.4723 222.212 48.9507 220.767 49.1776C219.323 49.4045 215.339 50.0462 211.919 50.6012C208.496 51.1546 205.648 51.3582 205.591 51.0489C205.534 50.7397 204.601 50.3343 203.522 50.1509C201.705 49.8445 201.796 49.7733 204.714 49.2351ZM228.193 44.3578C229.792 43.4412 233.872 42.857 233.996 43.5278C234.054 43.841 233.086 44.3844 231.846 44.7404L231.85 44.7398C230.612 45.0932 229.033 45.2949 228.346 45.1851C227.152 45.0012 227.144 44.9606 228.193 44.3578ZM237.358 47.6288C239.64 46.5357 240.475 46.4392 243.259 46.9519C247.983 47.8161 248.051 48.5003 243.493 49.2666C241.294 49.636 238.419 49.7028 237.1 49.4202L234.7 48.9008L237.358 47.6288ZM403.724 84.4446C403.162 84.3558 401.917 83.7164 400.956 83.0191C399.996 82.3276 398.788 81.8114 398.273 81.8742C397.757 81.9413 395.845 81.5316 394.027 80.9669C392.206 80.4005 389.819 79.748 388.722 79.5161C387.622 79.2848 386.742 78.7353 386.764 78.2951C386.785 77.857 385.477 76.7259 383.854 75.7852C380.427 73.7991 380.665 72.3038 384.216 73.5197C385.93 74.1081 386.795 74.092 387.525 73.4608C389.012 72.1818 388.101 71.5538 385.119 71.7969C383.648 71.919 381.947 71.743 381.338 71.411C379.736 70.5367 378.576 70.5726 372.231 71.6611C369.101 72.2003 366.187 72.4677 365.759 72.2528C365.328 72.0383 363.005 72.1585 360.594 72.5207C358.089 72.8927 355.017 72.8898 353.427 72.5098C350.888 71.9029 350.732 71.7498 351.677 70.8131C353.386 69.1162 351.871 68.9846 348.181 70.5169C343.075 72.6307 337.814 72.1852 337.207 69.5785C337.149 69.3192 340.184 68.6605 343.955 68.1131C348.639 67.4359 350.852 66.8719 350.937 66.3393C351.007 65.911 350.677 65.6674 350.206 65.7886C347.415 66.5338 339.677 66.4237 338.809 65.629C337.964 64.8564 337.693 64.8822 336.869 65.8083C335.733 67.0859 325.213 69.3201 322.899 68.777C321.647 68.4855 321.772 68.3946 323.609 68.2747C324.832 68.1943 325.789 67.8856 325.735 67.5976C325.682 67.3076 326.873 66.2419 328.38 65.2287C331.704 62.9946 332.84 61.4139 331.323 61.1352C330.753 61.0297 329.514 61.382 328.572 61.9213C326.229 63.2508 321.772 63.9317 321.264 63.0365C320.991 62.5562 319.188 62.5748 316.025 63.0937C313.37 63.5268 311.162 63.6973 311.121 63.4731C311.007 62.8883 307.257 62.9298 299.352 63.5973C295.57 63.9153 291.994 63.9135 291.409 63.5956C290.823 63.2737 288.632 63.1323 286.547 63.2742C284.462 63.418 282.861 63.2831 282.991 62.972C283.436 61.9025 281.471 61.7471 276.094 62.4174C273.129 62.7892 270.433 62.99 270.105 62.862C269.772 62.7386 265.289 63.1628 260.133 63.8098C248.447 65.2756 245.29 65.3348 245.062 64.1014C244.934 63.4055 245.723 63.0116 248.063 62.6055C252.184 61.8855 253.826 60.0561 249.912 60.5399C240.354 61.725 239.387 61.9418 239.904 62.7597C240.289 63.3726 239.777 63.6681 237.907 63.9252C235.405 64.2688 230.549 64.1478 231.878 63.7744C232.262 63.6679 233.083 63.0532 233.705 62.4123C234.727 61.3571 234.225 61.3521 228.459 62.353C224.951 62.9657 221.604 63.4217 221.024 63.368C216.389 62.9506 214.646 63.1804 214.056 64.2903C213.523 65.2889 212.602 65.506 207.284 65.8734C203.897 66.1128 199.257 66.3161 196.973 66.3321C194.69 66.3438 189.636 66.8363 185.742 67.4222C178.8 68.4698 175.846 68.2676 173.316 66.5789C171.809 65.5748 172.78 65.0924 177.636 64.432C182.148 63.8216 185.775 62.1166 186.114 60.4448C186.388 59.1071 183.34 59.6781 182.243 61.1726C181.572 62.0909 180.456 62.3904 176.753 62.6592C174.199 62.8442 170.6 63.2848 168.764 63.642C165.842 64.2038 165.546 64.15 166.435 63.2349C166.994 62.6523 167.424 62.0277 167.39 61.8421C167.356 61.6584 164.793 62.0901 161.692 62.8017C156.359 64.0268 155.973 64.03 154.42 62.7966C152.944 61.63 152.711 61.6173 152.124 62.661C151.615 63.5739 150.375 63.9801 146.409 64.5325C139.045 65.5514 135.99 65.4021 136.107 64.021C136.185 63.1169 135.733 62.9897 133.789 63.3669C132.462 63.6222 131.105 64.052 130.777 64.3226C130.446 64.5936 129.259 65.1742 128.137 65.6083C125.882 66.4806 124.293 65.6678 126.429 64.732C128.229 63.9424 127.276 63.0843 124.533 63.0242C123.173 62.9961 122.507 62.7075 122.826 62.287C123.118 61.897 124.618 61.6084 126.258 61.6233C128.099 61.6382 129.384 61.3539 129.753 60.8512C130.165 60.2936 131.03 60.1659 132.659 60.4297C135.309 60.8544 146.871 59.0747 153.712 57.187C158.213 55.9467 161.18 55.9474 162.549 57.1937C162.949 57.5589 163.336 57.3882 163.631 56.7245C164.031 55.8119 165.268 55.6236 173.472 55.1927C182.992 54.6978 184.438 54.8209 183.038 56.0116C182.47 56.4958 182.707 56.713 183.898 56.8076C184.799 56.877 185.587 56.6367 185.648 56.2695C185.708 55.9007 186.057 55.7164 186.425 55.8576C187.893 56.4118 201.475 54.3436 202.282 53.4363C202.917 52.7213 203.127 52.7478 203.279 53.5694C203.385 54.1416 203.732 54.5654 204.055 54.5111C204.375 54.4572 207.383 54.4071 210.736 54.4026C214.09 54.3938 219.156 53.9452 221.997 53.407C224.838 52.8728 227.45 52.5384 227.802 52.6646C228.155 52.7924 233.839 52.6605 240.436 52.3706C249.505 51.9695 252.854 51.5968 254.186 50.8464C255.484 50.1095 255.982 50.0455 256.083 50.5926C256.416 52.3604 271.75 51.7074 273.102 49.8672C273.67 49.0938 272.075 48.3398 270.445 48.6143C269.478 48.7772 267.707 48.7984 266.513 48.6626C259.451 47.8526 257.583 47.8324 253.302 48.5414C249.036 49.2479 248.527 49.1981 248.126 48.0338C247.43 46.0082 250.308 44.4172 253.195 45.2326C255.22 45.8045 255.578 45.7402 256.897 44.5593C257.808 43.7421 259.094 43.2664 260.333 43.293C261.418 43.3175 262.429 43.0435 262.581 42.6852C262.974 41.7478 260.762 41.2393 256.801 41.3543C254.904 41.4106 253.074 41.35 252.733 41.2241C251.455 40.7418 245.816 41.6934 244.378 42.6372C243.145 43.4448 242.729 43.4412 242.035 42.6311C241.439 41.9382 240.725 41.8431 239.619 42.3145C238.66 42.7252 237.996 42.7094 237.916 42.2745C237.844 41.8859 236.787 41.733 235.566 41.9386C234.348 42.1438 233.004 42.081 232.583 41.8012C232.161 41.5195 228.165 41.7459 223.702 42.3022C219.241 42.8621 213.722 43.3392 211.441 43.3625C205.596 43.424 202.019 44.128 200.702 45.478C198.993 47.2289 195.884 47.581 195.172 46.0985C194.586 44.8874 193.017 44.6654 192.57 45.7333C192.443 46.0398 191.476 46.396 190.423 46.5274C189.371 46.6588 187.369 46.9123 185.973 47.0895C184.275 47.3098 183.379 47.1138 183.266 46.5029C183.132 45.776 182.302 45.7882 179.292 46.5603L175.489 47.5356L176.868 46.0237C178.296 44.4516 177.782 42.8539 176.152 43.7901C175.642 44.0833 174.699 44.0369 174.06 43.6881C173.421 43.3451 172.755 43.246 172.587 43.4777C172.416 43.7097 171.273 43.6809 170.048 43.4189C168.548 43.0955 167.19 43.2284 165.889 43.8343C164.584 44.4447 163.758 44.524 163.349 44.0866C162.935 43.6441 161.963 43.7479 160.258 44.4237C158.893 44.9647 154.224 46.0261 149.886 46.7785C142.112 48.1336 141.992 48.1318 141.727 46.6935C141.413 44.9923 139.714 45.0093 139.087 46.7195C138.545 48.2021 136.814 47.5988 136.953 45.9747C137.073 44.5651 136.135 44.434 129.629 44.9557C124.179 45.3911 108.898 47.893 104.407 49.0818C102.592 49.5669 98.4207 50.6202 95.1409 51.4277C91.5748 52.3034 88.8022 53.3324 88.2509 53.9814C87.6376 54.7026 85.0174 55.5605 80.437 56.5372C76.6489 57.3426 73.3032 58.3366 72.9974 58.7529C72.697 59.1643 71.2997 59.6926 69.8965 59.9289C68.0736 60.2359 67.393 60.6376 67.5197 61.3239C67.6981 62.2905 67.0567 62.6437 64.8481 62.7984C64.1895 62.8435 63.7174 63.242 63.7991 63.6847C63.8841 64.1448 63.4695 64.0511 62.8303 63.4651C61.7639 62.4906 61.4708 62.534 56.2541 64.4351C53.2489 65.5292 50.33 66.4454 49.7647 66.4748C48.3166 66.5473 44.2087 68.1461 39.7999 70.3576C37.7364 71.3888 35.2504 72.3736 34.2771 72.5375C33.3038 72.7015 32.2075 73.2409 31.8436 73.7387C31.4757 74.2372 31.1344 74.4043 31.0808 74.1143C31.0277 73.8263 30.5463 74.0728 30.0086 74.6597C29.3463 75.3872 29.1486 75.4484 29.3902 74.8436C29.6406 74.2293 29.2263 74.046 28.0279 74.2478C26.9998 74.4209 26.3751 74.8989 26.474 75.4344C26.7399 76.8746 23.3812 78.3532 21.6696 77.5531C19.4585 76.5162 18.4482 76.9893 18.8009 78.8993L19.1188 80.6218L17.4894 79.4511C15.3589 77.9222 14.1121 78.19 13.1193 80.4003C12.6724 81.3885 11.6211 82.4885 10.782 82.8471C9.03769 83.5913 9.02744 84.8269 10.7539 85.9793C11.4056 86.4177 12.0177 87.2076 12.1151 87.7354C12.2129 88.2651 12.9568 88.7837 13.764 88.8869C14.5757 88.9914 15.1266 89.2235 14.992 89.4116C14.6725 89.8442 10.9519 88.9319 10.8531 88.3964C10.7785 87.9924 6.55429 88.939 5.02957 89.7061C4.11827 90.1606 4.26655 91.8698 5.24866 92.2405C5.6132 92.3805 6.26566 93.2533 6.70305 94.1843C7.13567 95.112 8.35625 96.6387 9.41479 97.5707C10.4733 98.5027 11.5697 99.9226 11.8498 100.727C12.3447 102.15 13.2899 102.695 15.7992 102.992C16.7491 103.109 17.1671 103.844 17.5953 106.163C18.302 109.991 21.4951 116.936 23.1208 118.177C23.8024 118.698 25.242 118.976 26.3167 118.795C28.6201 118.407 31.0597 119.051 31.252 120.093C31.3266 120.497 30.8776 121.575 30.2509 122.484L29.1127 124.145L31.163 126.496C32.2951 127.793 33.6724 128.787 34.2309 128.709C35.9805 128.458 38.1159 129.866 37.8657 131.104C37.553 132.638 39.1226 133.813 41.0469 133.489C41.9046 133.344 42.8313 133.471 43.112 133.769C43.6619 134.358 47.365 133.431 50.4142 131.941C51.4654 131.429 54.0307 130.569 56.1188 130.022C59.966 129.015 62.1342 127.577 64.5408 124.441C65.2757 123.484 66.2114 122.641 66.621 122.572C67.0343 122.5 68.192 121.829 69.1973 121.08C70.3179 120.241 73.2147 119.251 76.6922 118.518C79.8112 117.859 84.5734 116.644 87.2796 115.822C89.9858 114.999 97.2219 113.017 103.358 111.418C113.789 108.7 114.609 108.568 115.979 109.386C117.312 110.186 118.299 110.053 127.123 107.892C132.445 106.585 137.101 105.203 137.465 104.818C138.634 103.585 141.242 102.777 142.265 103.332C142.838 103.642 144.292 103.519 145.71 103.039C147.06 102.583 150.195 101.588 152.674 100.836C155.15 100.08 157.305 99.2884 157.462 99.0746C157.619 98.8607 158.465 99.2983 159.342 100.048C161.123 101.566 164.063 101.417 166.165 99.7038C167.182 98.8708 167.529 98.8124 167.893 99.4129C168.14 99.8237 168.773 100.09 169.296 100.002C169.819 99.9137 170.105 99.4928 169.931 99.0697C169.696 98.4874 171.142 98.0683 175.683 97.3853C181.591 96.498 183.485 96.3605 192.089 96.1731C203.633 95.9273 206.316 95.6708 207.847 94.6674C209.071 93.8592 209.545 93.8174 210.136 94.4494C210.759 95.1178 211.125 95.0641 212.37 94.1289C213.214 93.5004 214.533 93.1009 215.413 93.2158C216.841 93.394 216.883 93.4904 215.968 94.4C215.106 95.2568 215.536 95.4077 219.066 95.4809C221.316 95.5305 227.646 95.3994 233.134 95.1947C238.623 94.9877 245.128 94.7753 247.597 94.7263C250.064 94.6715 256.55 94.3427 262.012 93.9889C267.472 93.6334 272.412 93.4154 272.985 93.5043C273.561 93.5887 276.362 93.5615 279.209 93.4348C282.057 93.3139 286.709 93.1186 289.546 93.0056C292.381 92.8948 297.174 92.6636 300.189 92.4908C305.336 92.196 309.918 92.102 318.138 92.1309C320.045 92.1407 323.899 91.9082 326.702 91.6115C333.769 90.8759 330.498 90.4381 319.245 90.617C314.306 90.6933 305.751 90.7947 300.231 90.8412C291.494 90.9113 270.176 91.5973 268.637 91.8565C268.337 91.9071 267.619 91.2905 267.04 90.487C266.141 89.2392 266.162 88.8927 267.194 88.125C267.856 87.6248 269.296 87.0076 270.389 86.7457C271.693 86.4364 272.214 86.0098 271.9 85.5086C271.282 84.5283 278.537 83.7031 281.01 84.4725C282.137 84.8249 286.287 84.4012 293.538 83.1939C299.499 82.198 304.975 81.5667 305.708 81.7843C306.44 82.0018 308.476 82.0595 310.234 81.907C314.39 81.5578 321.044 81.5534 328.031 81.8997C331.11 82.0549 335.064 82.0667 336.819 81.9285C338.573 81.7906 340.329 81.7979 340.723 81.9528C341.118 82.0995 344.503 82.1554 348.246 82.0691C356.121 81.895 360.186 81.9778 364.146 82.3853C367.291 82.7129 371.953 82.8586 375.7 82.7478C377.053 82.7072 378.879 83.1192 379.754 83.6576C380.759 84.2838 382.313 84.4805 383.96 84.1951C387.922 83.5159 391.155 83.5296 394.313 84.2275C398.872 85.2418 404.006 85.7007 404.39 85.1336C404.586 84.8436 404.287 84.5372 403.724 84.4446Z" fill="#4DABEE"/>
</g>
<path fill-rule="evenodd" clip-rule="evenodd" d="M328.956 90.5517C328.342 90.3161 326.592 90.1398 325.072 90.1621C323.253 90.1829 322.693 90.3428 323.426 90.6202C324.04 90.8558 325.788 91.0344 327.31 91.0118C329.129 90.989 329.691 90.8288 328.956 90.5517Z" fill="#4DABEE"/>
<path fill-rule="evenodd" clip-rule="evenodd" d="M373.916 66.746C371.529 67.5099 371.211 67.7887 372.08 68.3502C372.661 68.7229 374.502 68.8978 376.176 68.736C378.55 68.5004 379.223 68.204 379.246 67.3589C379.287 65.8731 377.346 65.6533 373.916 66.746Z" fill="#4DABEE"/>
<path fill-rule="evenodd" clip-rule="evenodd" d="M352.406 92.209C350.938 92.3063 350.364 92.4147 351.134 92.4527C351.902 92.491 352.87 92.737 353.28 92.9989C353.692 93.2605 354.797 93.3438 355.737 93.1699C358.299 92.7094 355.783 91.9822 352.406 92.209Z" fill="#4DABEE"/>
<path fill-rule="evenodd" clip-rule="evenodd" d="M385.48 76.7015C385.744 76.8763 386.324 76.8008 386.777 76.5353C387.276 76.2401 387.088 76.1124 386.3 76.2169C385.587 76.3068 385.217 76.5244 385.48 76.7015Z" fill="#4DABEE"/>
<path fill-rule="evenodd" clip-rule="evenodd" d="M366.174 92.5675C363.54 92.6953 363.36 92.7834 364.595 93.391C365.358 93.7611 367.03 93.9046 368.307 93.6998C371.453 93.1989 369.926 92.3893 366.174 92.5675Z" fill="#4DABEE"/>
<path fill-rule="evenodd" clip-rule="evenodd" d="M373.363 87.5881C373.039 87.6426 372.88 88.2614 373.01 88.967C373.238 90.1983 374.645 90.482 375.404 89.4516C375.823 88.8827 374.244 87.4401 373.363 87.5881Z" fill="#4DABEE"/>
<path fill-rule="evenodd" clip-rule="evenodd" d="M359.708 86.5826C358.806 86.7343 358.12 87.1406 358.184 87.4847C358.315 88.1941 361.711 88.5801 362.182 87.9407C362.786 87.1156 361.318 86.312 359.708 86.5826Z" fill="#4DABEE"/>
<path fill-rule="evenodd" clip-rule="evenodd" d="M341.216 91.0798C339.478 91.0631 338.096 91.2694 338.146 91.5401C338.274 92.2282 339.694 92.414 343.559 92.2468C347.815 92.0654 345.932 91.1283 341.216 91.0798Z" fill="#4DABEE"/>
<path fill-rule="evenodd" clip-rule="evenodd" d="M336.694 91.1706C336.083 90.9663 334.866 90.7064 333.991 90.6084C333.114 90.5027 332.447 90.6964 332.509 91.0289C332.625 91.6552 335.011 92.0454 336.796 91.7215C337.689 91.5635 337.677 91.4997 336.694 91.1706Z" fill="#4DABEE"/>
<path fill-rule="evenodd" clip-rule="evenodd" d="M389.53 73.3C388.779 73.9405 389.751 75.3876 391.102 75.6369C392.313 75.8658 393.335 75.2177 393.171 74.3343C393.02 73.5185 390.208 72.7237 389.53 73.3Z" fill="#4DABEE"/>
</svg>
